<svg aria-hidden="true" style="position: absolute; width: 0; height: 0; overflow: hidden;" version="1.1" xmlns="http://www.w3.org/2000/svg" xmlns:xlink="http://www.w3.org/1999/xlink">
<defs>
<symbol id="icon-worning" viewBox="0 0 34 32">
<path fill="#eb5757" style="fill: var(--color1, #eb5757)" d="M27.733 23.552c0 0.666-0.228 1.173-0.685 1.523s-1.017 0.525-1.682 0.525h-22.999c-0.664 0-1.225-0.179-1.682-0.538s-0.685-0.862-0.685-1.51c0-0.512 0.149-1.033 0.449-1.562l11.487-20.582c0.548-0.939 1.196-1.408 1.944-1.408s1.379 0.469 1.894 1.408l11.512 20.608c0.299 0.546 0.448 1.058 0.448 1.536zM15.598 10.47v-3.738h-3.464v3.738c0 0.239 0.017 0.465 0.050 0.678s0.079 0.452 0.137 0.717c0.058 0.265 0.104 0.491 0.137 0.678l0.648 4.147h1.47l0.673-4.147c0.033-0.171 0.083-0.393 0.149-0.666s0.116-0.516 0.149-0.73c0.033-0.213 0.050-0.439 0.050-0.678zM15.598 20.378c0-0.495-0.17-0.913-0.511-1.254s-0.752-0.512-1.233-0.512c-0.465 0-0.868 0.171-1.209 0.512s-0.511 0.759-0.511 1.254c0 0.495 0.17 0.917 0.511 1.267s0.743 0.525 1.209 0.525c0.482 0 0.893-0.175 1.233-0.525s0.511-0.772 0.511-1.267z"></path>
</symbol>
<symbol id="icon-arrow-right" viewBox="0 0 16 32">
<path fill="#fff" style="fill: var(--color2, #fff)" d="M14.019 17.062l-8.5 8.5c-0.588 0.588-1.538 0.588-2.119 0l-1.413-1.412c-0.587-0.588-0.587-1.538 0-2.119l6.025-6.025-6.025-6.025c-0.587-0.588-0.587-1.537 0-2.119l1.406-1.425c0.587-0.588 1.537-0.588 2.119 0l8.5 8.5c0.594 0.588 0.594 1.538 0.006 2.125z"></path>
</symbol>
<symbol id="icon-logo-book" viewBox="0 0 37 32">
<path fill="#28a745" style="fill: var(--color3, #28a745)" d="M33.831 2.003c-3.419 0.194-10.215 0.902-14.41 3.474-0.29 0.178-0.454 0.493-0.454 0.823v22.742c0 0.722 0.788 1.178 1.453 0.843 4.316-2.176 10.559-2.77 13.645-2.932 1.054-0.056 1.873-0.902 1.873-1.916v-21.115c0.001-1.107-0.958-1.984-2.107-1.919zM16.517 5.478c-4.195-2.572-10.991-3.279-14.41-3.474-1.149-0.065-2.108 0.812-2.108 1.919v21.116c0 1.015 0.819 1.861 1.873 1.916 3.088 0.162 9.333 0.757 13.65 2.934 0.663 0.334 1.448-0.121 1.448-0.841v-22.758c0-0.331-0.163-0.634-0.454-0.812z"></path>
</symbol>
</defs>
</svg>
